STARTFONT 2.1
COMMENT $XFree86$
COMMENT  
COMMENT  Copyright 1989 Dale Schumacher, dal@syntel.mn.org
COMMENT                 399 Beacon Ave.
COMMENT                 St. Paul, MN  55104-3527
COMMENT  
COMMENT  Permission to use, copy, modify, and distribute this software and
COMMENT  its documentation for any purpose and without fee is hereby
COMMENT  granted, provided that the above copyright notice appear in all
COMMENT  copies and that both that copyright notice and this permission
COMMENT  notice appear in supporting documentation, and that the name of
COMMENT  Dale Schumacher not be used in advertising or publicity pertaining to
COMMENT  distribution of the software without specific, written prior
COMMENT  permission.  Dale Schumacher makes no representations about the
COMMENT  suitability of this software for any purpose.  It is provided "as
COMMENT  is" without express or implied warranty.
COMMENT  
FONT -Schumacher-Clean-Medium-R-Normal--14-140-75-75-C-70-ISO646.1991-IRV
SIZE 14 75 75
FONTBOUNDINGBOX 7 14 0 -3
STARTPROPERTIES 19
FONTNAME_REGISTRY ""
FOUNDRY "Schumacher"
FAMILY_NAME "Clean"
WEIGHT_NAME "Medium"
SLANT "R"
SETWIDTH_NAME "Normal"
ADD_STYLE_NAME ""
PIXEL_SIZE 14
POINT_SIZE 140
RESOLUTION_X 75
RESOLUTION_Y 75
SPACING "C"
AVERAGE_WIDTH 70
CHARSET_REGISTRY "ISO646.1991"
CHARSET_ENCODING "IRV"
FONT_ASCENT 11
FONT_DESCENT 3
DEFAULT_CHAR 0
COPYRIGHT "Copyright 1989 Dale Schumacher."
ENDPROPERTIES
CHARS 128
STARTCHAR C000
ENCODING 0
SWIDTH 666 0
DWIDTH 7 0
BBX 7 14 0 -3
BITMAP
00
00
00
00
00
00
00
00
00
00
00
00
00
00
ENDCHAR
STARTCHAR C001
ENCODING 1
SWIDTH 666 0
DWIDTH 7 0
BBX 7 14 0 -3
BITMAP
00
00
10
28
44
ee
28
28
28
28
38
00
00
00
ENDCHAR
STARTCHAR C002
ENCODING 2
SWIDTH 666 0
DWIDTH 7 0
BBX 7 14 0 -3
BITMAP
00
00
38
28
28
28
28
ee
44
28
10
00
00
00
ENDCHAR
STARTCHAR C003
ENCODING 3
SWIDTH 666 0
DWIDTH 7 0
BBX 7 14 0 -3
BITMAP
00
00
00
10
18
f4
82
f4
18
10
00
00
00
00
ENDCHAR
STARTCHAR C004
ENCODING 4
SWIDTH 666 0
DWIDTH 7 0
BBX 7 14 0 -3
BITMAP
00
00
00
10
30
5e
82
5e
30
10
00
00
00
00
ENDCHAR
STARTCHAR C005
ENCODING 5
SWIDTH 666 0
DWIDTH 7 0
BBX 7 14 0 -3
BITMAP
00
00
00
a5
66
e7
18
18
e7
66
a5
00
00
00
ENDCHAR
STARTCHAR C006
ENCODING 6
SWIDTH 666 0
DWIDTH 7 0
BBX 7 14 0 -3
BITMAP
00
00
00
f8
88
88
88
f9
05
03
0f
00
00
00
ENDCHAR
STARTCHAR C007
ENCODING 7
SWIDTH 666 0
DWIDTH 7 0
BBX 7 14 0 -3
BITMAP
00
00
00
e7
c3
a5
18
18
a5
c3
e7
00
00
00
ENDCHAR
STARTCHAR C010
ENCODING 8
SWIDTH 666 0
DWIDTH 7 0
BBX 7 14 0 -3
BITMAP
00
fe
1e
ce
ae
c0
a6
c8
04
e2
ec
e0
fe
00
ENDCHAR
STARTCHAR C011
ENCODING 9
SWIDTH 666 0
DWIDTH 7 0
BBX 7 14 0 -3
BITMAP
00
fe
0e
ae
ae
e0
ae
a4
04
f4
f4
f0
fe
00
ENDCHAR
STARTCHAR C012
ENCODING 10
SWIDTH 666 0
DWIDTH 7 0
BBX 7 14 0 -3
BITMAP
00
fe
3e
be
be
a0
8e
e8
0c
e8
ea
e2
fe
00
ENDCHAR
STARTCHAR C013
ENCODING 11
SWIDTH 666 0
DWIDTH 7 0
BBX 7 14 0 -3
BITMAP
00
fe
0e
ae
ae
a0
4e
44
14
f4
f4
f0
fe
00
ENDCHAR
STARTCHAR C014
ENCODING 12
SWIDTH 666 0
DWIDTH 7 0
BBX 7 14 0 -3
BITMAP
00
fe
0e
ee
8e
c0
8e
a8
2c
e8
ea
e2
fe
00
ENDCHAR
STARTCHAR C015
ENCODING 13
SWIDTH 666 0
DWIDTH 7 0
BBX 7 14 0 -3
BITMAP
00
fe
0e
6e
8e
80
8c
6a
0c
ea
ea
e0
fe
00
ENDCHAR
STARTCHAR C016
ENCODING 14
SWIDTH 666 0
DWIDTH 7 0
BBX 7 14 0 -3
BITMAP
05
05
05
05
05
05
0d
0d
0d
19
79
71
00
00
ENDCHAR
STARTCHAR C017
ENCODING 15
SWIDTH 666 0
DWIDTH 7 0
BBX 7 14 0 -3
BITMAP
a0
a0
a0
a0
a0
a0
b0
b0
b0
98
9e
8e
00
00
ENDCHAR
STARTCHAR C020
ENCODING 16
SWIDTH 666 0
DWIDTH 7 0
BBX 7 14 0 -3
BITMAP
00
3c
42
42
00
42
42
3c
00
00
00
00
00
00
ENDCHAR
STARTCHAR C021
ENCODING 17
SWIDTH 666 0
DWIDTH 7 0
BBX 7 14 0 -3
BITMAP
00
02
02
02
00
02
02
02
00
00
00
00
00
00
ENDCHAR
STARTCHAR C022
ENCODING 18
SWIDTH 666 0
DWIDTH 7 0
BBX 7 14 0 -3
BITMAP
00
3c
02
02
3c
40
40
3c
00
00
00
00
00
00
ENDCHAR
STARTCHAR C023
ENCODING 19
SWIDTH 666 0
DWIDTH 7 0
BBX 7 14 0 -3
BITMAP
00
3c
02
02
3c
02
02
3c
00
00
00
00
00
00
ENDCHAR
STARTCHAR C024
ENCODING 20
SWIDTH 666 0
DWIDTH 7 0
BBX 7 14 0 -3
BITMAP
00
42
42
42
3c
02
02
02
00
00
00
00
00
00
ENDCHAR
STARTCHAR C025
ENCODING 21
SWIDTH 666 0
DWIDTH 7 0
BBX 7 14 0 -3
BITMAP
00
3c
40
40
3c
02
02
3c
00
00
00
00
00
00
ENDCHAR
STARTCHAR C026
ENCODING 22
SWIDTH 666 0
DWIDTH 7 0
BBX 7 14 0 -3
BITMAP
00
3c
40
40
3c
42
42
3c
00
00
00
00
00
00
ENDCHAR
STARTCHAR C027
ENCODING 23
SWIDTH 666 0
DWIDTH 7 0
BBX 7 14 0 -3
BITMAP
00
3c
02
02
00
02
02
02
00
00
00
00
00
00
ENDCHAR
STARTCHAR C030
ENCODING 24
SWIDTH 666 0
DWIDTH 7 0
BBX 7 14 0 -3
BITMAP
00
3c
42
42
3c
42
42
3c
00
00
00
00
00
00
ENDCHAR
STARTCHAR C031
ENCODING 25
SWIDTH 666 0
DWIDTH 7 0
BBX 7 14 0 -3
BITMAP
00
3c
42
42
3c
02
02
3c
00
00
00
00
00
00
ENDCHAR
STARTCHAR C032
ENCODING 26
SWIDTH 666 0
DWIDTH 7 0
BBX 7 14 0 -3
BITMAP
00
00
00
00
3c
02
02
7e
42
42
3c
00
00
00
ENDCHAR
STARTCHAR C033
ENCODING 27
SWIDTH 666 0
DWIDTH 7 0
BBX 7 14 0 -3
BITMAP
00
fe
0e
ee
8e
e0
86
e8
08
e8
e6
f0
fe
00
ENDCHAR
STARTCHAR C034
ENCODING 28
SWIDTH 666 0
DWIDTH 7 0
BBX 7 14 0 -3
BITMAP
00
00
00
00
00
00
0e
1e
3e
30
30
20
3c
2e
ENDCHAR
STARTCHAR C035
ENCODING 29
SWIDTH 666 0
DWIDTH 7 0
BBX 7 14 0 -3
BITMAP
00
00
00
00
00
00
f0
f8
ec
04
04
04
3c
54
ENDCHAR
STARTCHAR C036
ENCODING 30
SWIDTH 666 0
DWIDTH 7 0
BBX 7 14 0 -3
BITMAP
22
16
1a
0c
0e
5c
72
70
00
00
00
00
00
00
ENDCHAR
STARTCHAR C037
ENCODING 31
SWIDTH 666 0
DWIDTH 7 0
BBX 7 14 0 -3
BITMAP
04
28
d8
28
d0
10
e0
00
00
00
00
00
00
00
ENDCHAR
STARTCHAR C040
ENCODING 32
SWIDTH 666 0
DWIDTH 7 0
BBX 7 14 0 -3
BITMAP
00
00
00
00
00
00
00
00
00
00
00
00
00
00
ENDCHAR
STARTCHAR !
ENCODING 33
SWIDTH 666 0
DWIDTH 7 0
BBX 7 14 0 -3
BITMAP
00
08
08
08
08
08
08
08
00
08
08
00
00
00
ENDCHAR
STARTCHAR "
ENCODING 34
SWIDTH 666 0
DWIDTH 7 0
BBX 7 14 0 -3
BITMAP
00
00
28
28
28
00
00
00
00
00
00
00
00
00
ENDCHAR
STARTCHAR #
ENCODING 35
SWIDTH 666 0
DWIDTH 7 0
BBX 7 14 0 -3
BITMAP
00
24
24
24
7e
24
24
24
7e
24
24
24
00
00
ENDCHAR
STARTCHAR $
ENCODING 36
SWIDTH 666 0
DWIDTH 7 0
BBX 7 14 0 -3
BITMAP
00
00
10
38
54
50
30
18
14
54
38
10
00
00
ENDCHAR
STARTCHAR %
ENCODING 37
SWIDTH 666 0
DWIDTH 7 0
BBX 7 14 0 -3
BITMAP
00
00
00
60
64
08
10
20
4c
0c
00
00
00
00
ENDCHAR
STARTCHAR &
ENCODING 38
SWIDTH 666 0
DWIDTH 7 0
BBX 7 14 0 -3
BITMAP
00
00
38
40
40
20
30
4a
44
44
3a
00
00
00
ENDCHAR
STARTCHAR '
ENCODING 39
SWIDTH 666 0
DWIDTH 7 0
BBX 7 14 0 -3
BITMAP
00
00
18
10
20
00
00
00
00
00
00
00
00
00
ENDCHAR
STARTCHAR (
ENCODING 40
SWIDTH 666 0
DWIDTH 7 0
BBX 7 14 0 -3
BITMAP
00
08
10
10
20
20
20
20
20
10
10
08
00
00
ENDCHAR
STARTCHAR )
ENCODING 41
SWIDTH 666 0
DWIDTH 7 0
BBX 7 14 0 -3
BITMAP
00
20
10
10
08
08
08
08
08
10
10
20
00
00
ENDCHAR
STARTCHAR *
ENCODING 42
SWIDTH 666 0
DWIDTH 7 0
BBX 7 14 0 -3
BITMAP
00
00
00
10
10
d6
38
10
28
44
00
00
00
00
ENDCHAR
STARTCHAR +
ENCODING 43
SWIDTH 666 0
DWIDTH 7 0
BBX 7 14 0 -3
BITMAP
00
00
00
00
10
10
7c
10
10
00
00
00
00
00
ENDCHAR
STARTCHAR ,
ENCODING 44
SWIDTH 666 0
DWIDTH 7 0
BBX 7 14 0 -3
BITMAP
00
00
00
00
00
00
00
00
00
30
30
20
40
00
ENDCHAR
STARTCHAR -
ENCODING 45
SWIDTH 666 0
DWIDTH 7 0
BBX 7 14 0 -3
BITMAP
00
00
00
00
00
00
7e
00
00
00
00
00
00
00
ENDCHAR
STARTCHAR .
ENCODING 46
SWIDTH 666 0
DWIDTH 7 0
BBX 7 14 0 -3
BITMAP
00
00
00
00
00
00
00
00
00
30
30
00
00
00
ENDCHAR
STARTCHAR /
ENCODING 47
SWIDTH 666 0
DWIDTH 7 0
BBX 7 14 0 -3
BITMAP
02
02
04
04
08
08
10
10
20
20
40
40
00
00
ENDCHAR
STARTCHAR 0
ENCODING 48
SWIDTH 666 0
DWIDTH 7 0
BBX 7 14 0 -3
BITMAP
00
38
44
44
44
44
44
44
44
44
38
00
00
00
ENDCHAR
STARTCHAR 1
ENCODING 49
SWIDTH 666 0
DWIDTH 7 0
BBX 7 14 0 -3
BITMAP
00
10
30
10
10
10
10
10
10
10
10
00
00
00
ENDCHAR
STARTCHAR 2
ENCODING 50
SWIDTH 666 0
DWIDTH 7 0
BBX 7 14 0 -3
BITMAP
00
38
44
04
04
08
10
20
40
40
7c
00
00
00
ENDCHAR
STARTCHAR 3
ENCODING 51
SWIDTH 666 0
DWIDTH 7 0
BBX 7 14 0 -3
BITMAP
00
38
44
04
04
18
04
04
04
44
38
00
00
00
ENDCHAR
STARTCHAR 4
ENCODING 52
SWIDTH 666 0
DWIDTH 7 0
BBX 7 14 0 -3
BITMAP
00
08
08
18
18
28
28
48
7c
08
1c
00
00
00
ENDCHAR
STARTCHAR 5
ENCODING 53
SWIDTH 666 0
DWIDTH 7 0
BBX 7 14 0 -3
BITMAP
00
7c
40
40
40
78
04
04
04
44
38
00
00
00
ENDCHAR
STARTCHAR 6
ENCODING 54
SWIDTH 666 0
DWIDTH 7 0
BBX 7 14 0 -3
BITMAP
00
18
20
40
40
78
44
44
44
44
38
00
00
00
ENDCHAR
STARTCHAR 7
ENCODING 55
SWIDTH 666 0
DWIDTH 7 0
BBX 7 14 0 -3
BITMAP
00
7c
44
04
04
08
08
08
10
10
10
00
00
00
ENDCHAR
STARTCHAR 8
ENCODING 56
SWIDTH 666 0
DWIDTH 7 0
BBX 7 14 0 -3
BITMAP
00
38
44
44
44
38
44
44
44
44
38
00
00
00
ENDCHAR
STARTCHAR 9
ENCODING 57
SWIDTH 666 0
DWIDTH 7 0
BBX 7 14 0 -3
BITMAP
00
38
44
44
44
44
3c
04
04
08
30
00
00
00
ENDCHAR
STARTCHAR :
ENCODING 58
SWIDTH 666 0
DWIDTH 7 0
BBX 7 14 0 -3
BITMAP
00
00
00
00
30
30
00
00
00
30
30
00
00
00
ENDCHAR
STARTCHAR ;
ENCODING 59
SWIDTH 666 0
DWIDTH 7 0
BBX 7 14 0 -3
BITMAP
00
00
00
00
30
30
00
00
00
30
30
20
40
00
ENDCHAR
STARTCHAR <
ENCODING 60
SWIDTH 666 0
DWIDTH 7 0
BBX 7 14 0 -3
BITMAP
00
00
00
00
06
18
60
18
06
00
00
00
00
00
ENDCHAR
STARTCHAR =
ENCODING 61
SWIDTH 666 0
DWIDTH 7 0
BBX 7 14 0 -3
BITMAP
00
00
00
00
00
7e
00
00
7e
00
00
00
00
00
ENDCHAR
STARTCHAR >
ENCODING 62
SWIDTH 666 0
DWIDTH 7 0
BBX 7 14 0 -3
BITMAP
00
00
00
00
60
18
06
18
60
00
00
00
00
00
ENDCHAR
STARTCHAR ?
ENCODING 63
SWIDTH 666 0
DWIDTH 7 0
BBX 7 14 0 -3
BITMAP
00
3c
42
02
02
04
08
08
00
08
08
00
00
00
ENDCHAR
STARTCHAR @
ENCODING 64
SWIDTH 666 0
DWIDTH 7 0
BBX 7 14 0 -3
BITMAP
00
00
00
38
44
92
aa
aa
94
40
3c
00
00
00
ENDCHAR
STARTCHAR A
ENCODING 65
SWIDTH 666 0
DWIDTH 7 0
BBX 7 14 0 -3
BITMAP
00
00
10
10
38
28
28
7c
44
44
c6
00
00
00
ENDCHAR
STARTCHAR B
ENCODING 66
SWIDTH 666 0
DWIDTH 7 0
BBX 7 14 0 -3
BITMAP
00
00
7c
42
42
42
7c
42
42
42
7c
00
00
00
ENDCHAR
STARTCHAR C
ENCODING 67
SWIDTH 666 0
DWIDTH 7 0
BBX 7 14 0 -3
BITMAP
00
00
1c
22
40
40
40
40
40
22
1c
00
00
00
ENDCHAR
STARTCHAR D
ENCODING 68
SWIDTH 666 0
DWIDTH 7 0
BBX 7 14 0 -3
BITMAP
00
00
78
44
42
42
42
42
42
44
78
00
00
00
ENDCHAR
STARTCHAR E
ENCODING 69
SWIDTH 666 0
DWIDTH 7 0
BBX 7 14 0 -3
BITMAP
00
00
7e
40
40
40
78
40
40
40
7e
00
00
00
ENDCHAR
STARTCHAR F
ENCODING 70
SWIDTH 666 0
DWIDTH 7 0
BBX 7 14 0 -3
BITMAP
00
00
7e
40
40
40
78
40
40
40
40
00
00
00
ENDCHAR
STARTCHAR G
ENCODING 71
SWIDTH 666 0
DWIDTH 7 0
BBX 7 14 0 -3
BITMAP
00
00
1c
22
40
40
40
4e
42
22
1e
00
00
00
ENDCHAR
STARTCHAR H
ENCODING 72
SWIDTH 666 0
DWIDTH 7 0
BBX 7 14 0 -3
BITMAP
00
00
42
42
42
42
7e
42
42
42
42
00
00
00
ENDCHAR
STARTCHAR I
ENCODING 73
SWIDTH 666 0
DWIDTH 7 0
BBX 7 14 0 -3
BITMAP
00
00
7c
10
10
10
10
10
10
10
7c
00
00
00
ENDCHAR
STARTCHAR J
ENCODING 74
SWIDTH 666 0
DWIDTH 7 0
BBX 7 14 0 -3
BITMAP
00
00
0e
02
02
02
02
02
42
42
3c
00
00
00
ENDCHAR
STARTCHAR K
ENCODING 75
SWIDTH 666 0
DWIDTH 7 0
BBX 7 14 0 -3
BITMAP
00
00
42
44
48
50
60
50
48
44
42
00
00
00
ENDCHAR
STARTCHAR L
ENCODING 76
SWIDTH 666 0
DWIDTH 7 0
BBX 7 14 0 -3
BITMAP
00
00
40
40
40
40
40
40
40
40
7e
00
00
00
ENDCHAR
STARTCHAR M
ENCODING 77
SWIDTH 666 0
DWIDTH 7 0
BBX 7 14 0 -3
BITMAP
00
00
42
42
66
66
5a
5a
42
42
42
00
00
00
ENDCHAR
STARTCHAR N
ENCODING 78
SWIDTH 666 0
DWIDTH 7 0
BBX 7 14 0 -3
BITMAP
00
00
62
62
52
52
4a
4a
46
46
42
00
00
00
ENDCHAR
STARTCHAR O
ENCODING 79
SWIDTH 666 0
DWIDTH 7 0
BBX 7 14 0 -3
BITMAP
00
00
18
24
42
42
42
42
42
24
18
00
00
00
ENDCHAR
STARTCHAR P
ENCODING 80
SWIDTH 666 0
DWIDTH 7 0
BBX 7 14 0 -3
BITMAP
00
00
7c
42
42
42
7c
40
40
40
40
00
00
00
ENDCHAR
STARTCHAR Q
ENCODING 81
SWIDTH 666 0
DWIDTH 7 0
BBX 7 14 0 -3
BITMAP
00
00
18
24
42
42
42
42
42
24
18
2a
04
00
ENDCHAR
STARTCHAR R
ENCODING 82
SWIDTH 666 0
DWIDTH 7 0
BBX 7 14 0 -3
BITMAP
00
00
7c
42
42
42
7c
50
48
44
42
00
00
00
ENDCHAR
STARTCHAR S
ENCODING 83
SWIDTH 666 0
DWIDTH 7 0
BBX 7 14 0 -3
BITMAP
00
00
3c
42
40
40
3c
02
02
42
3c
00
00
00
ENDCHAR
STARTCHAR T
ENCODING 84
SWIDTH 666 0
DWIDTH 7 0
BBX 7 14 0 -3
BITMAP
00
00
fe
10
10
10
10
10
10
10
10
00
00
00
ENDCHAR
STARTCHAR U
ENCODING 85
SWIDTH 666 0
DWIDTH 7 0
BBX 7 14 0 -3
BITMAP
00
00
42
42
42
42
42
42
42
42
3c
00
00
00
ENDCHAR
STARTCHAR V
ENCODING 86
SWIDTH 666 0
DWIDTH 7 0
BBX 7 14 0 -3
BITMAP
00
00
c6
44
44
28
28
28
10
10
10
00
00
00
ENDCHAR
STARTCHAR W
ENCODING 87
SWIDTH 666 0
DWIDTH 7 0
BBX 7 14 0 -3
BITMAP
00
00
42
42
42
5a
5a
66
66
42
42
00
00
00
ENDCHAR
STARTCHAR X
ENCODING 88
SWIDTH 666 0
DWIDTH 7 0
BBX 7 14 0 -3
BITMAP
00
00
44
44
28
28
10
28
28
44
44
00
00
00
ENDCHAR
STARTCHAR Y
ENCODING 89
SWIDTH 666 0
DWIDTH 7 0
BBX 7 14 0 -3
BITMAP
00
00
44
44
28
28
10
10
10
10
10
00
00
00
ENDCHAR
STARTCHAR Z
ENCODING 90
SWIDTH 666 0
DWIDTH 7 0
BBX 7 14 0 -3
BITMAP
00
00
7c
04
08
08
10
20
20
40
7c
00
00
00
ENDCHAR
STARTCHAR [
ENCODING 91
SWIDTH 666 0
DWIDTH 7 0
BBX 7 14 0 -3
BITMAP
00
38
20
20
20
20
20
20
20
20
20
38
00
00
ENDCHAR
STARTCHAR \
ENCODING 92
SWIDTH 666 0
DWIDTH 7 0
BBX 7 14 0 -3
BITMAP
40
40
20
20
10
10
08
08
04
04
02
02
00
00
ENDCHAR
STARTCHAR ]
ENCODING 93
SWIDTH 666 0
DWIDTH 7 0
BBX 7 14 0 -3
BITMAP
00
38
08
08
08
08
08
08
08
08
08
38
00
00
ENDCHAR
STARTCHAR ^
ENCODING 94
SWIDTH 666 0
DWIDTH 7 0
BBX 7 14 0 -3
BITMAP
00
10
28
44
00
00
00
00
00
00
00
00
00
00
ENDCHAR
STARTCHAR _
ENCODING 95
SWIDTH 666 0
DWIDTH 7 0
BBX 7 14 0 -3
BITMAP
00
00
00
00
00
00
00
00
00
00
00
00
7e
00
ENDCHAR
STARTCHAR `
ENCODING 96
SWIDTH 666 0
DWIDTH 7 0
BBX 7 14 0 -3
BITMAP
00
00
30
10
08
00
00
00
00
00
00
00
00
00
ENDCHAR
STARTCHAR a
ENCODING 97
SWIDTH 666 0
DWIDTH 7 0
BBX 7 14 0 -3
BITMAP
00
00
00
00
3e
42
42
42
42
46
3a
00
00
00
ENDCHAR
STARTCHAR b
ENCODING 98
SWIDTH 666 0
DWIDTH 7 0
BBX 7 14 0 -3
BITMAP
00
40
40
40
7c
42
42
42
42
42
7c
00
00
00
ENDCHAR
STARTCHAR c
ENCODING 99
SWIDTH 666 0
DWIDTH 7 0
BBX 7 14 0 -3
BITMAP
00
00
00
00
3c
40
40
40
40
40
3c
00
00
00
ENDCHAR
STARTCHAR d
ENCODING 100
SWIDTH 666 0
DWIDTH 7 0
BBX 7 14 0 -3
BITMAP
00
02
02
02
3e
42
42
42
42
42
3e
00
00
00
ENDCHAR
STARTCHAR e
ENCODING 101
SWIDTH 666 0
DWIDTH 7 0
BBX 7 14 0 -3
BITMAP
00
00
00
00
3c
42
42
7e
40
40
3c
00
00
00
ENDCHAR
STARTCHAR f
ENCODING 102
SWIDTH 666 0
DWIDTH 7 0
BBX 7 14 0 -3
BITMAP
00
1e
20
20
78
20
20
20
20
20
20
00
00
00
ENDCHAR
STARTCHAR g
ENCODING 103
SWIDTH 666 0
DWIDTH 7 0
BBX 7 14 0 -3
BITMAP
00
00
00
00
3e
42
42
42
42
42
3e
02
02
3c
ENDCHAR
STARTCHAR h
ENCODING 104
SWIDTH 666 0
DWIDTH 7 0
BBX 7 14 0 -3
BITMAP
00
40
40
40
7c
42
42
42
42
42
42
00
00
00
ENDCHAR
STARTCHAR i
ENCODING 105
SWIDTH 666 0
DWIDTH 7 0
BBX 7 14 0 -3
BITMAP
00
10
10
00
70
10
10
10
10
10
7c
00
00
00
ENDCHAR
STARTCHAR j
ENCODING 106
SWIDTH 666 0
DWIDTH 7 0
BBX 7 14 0 -3
BITMAP
00
04
04
00
3c
04
04
04
04
04
04
04
04
78
ENDCHAR
STARTCHAR k
ENCODING 107
SWIDTH 666 0
DWIDTH 7 0
BBX 7 14 0 -3
BITMAP
00
40
40
40
42
44
48
70
48
44
42
00
00
00
ENDCHAR
STARTCHAR l
ENCODING 108
SWIDTH 666 0
DWIDTH 7 0
BBX 7 14 0 -3
BITMAP
00
70
10
10
10
10
10
10
10
10
7c
00
00
00
ENDCHAR
STARTCHAR m
ENCODING 109
SWIDTH 666 0
DWIDTH 7 0
BBX 7 14 0 -3
BITMAP
00
00
00
00
68
54
54
54
54
44
44
00
00
00
ENDCHAR
STARTCHAR n
ENCODING 110
SWIDTH 666 0
DWIDTH 7 0
BBX 7 14 0 -3
BITMAP
00
00
00
00
5c
62
42
42
42
42
42
00
00
00
ENDCHAR
STARTCHAR o
ENCODING 111
SWIDTH 666 0
DWIDTH 7 0
BBX 7 14 0 -3
BITMAP
00
00
00
00
3c
42
42
42
42
42
3c
00
00
00
ENDCHAR
STARTCHAR p
ENCODING 112
SWIDTH 666 0
DWIDTH 7 0
BBX 7 14 0 -3
BITMAP
00
00
00
00
7c
42
42
42
42
42
7c
40
40
40
ENDCHAR
STARTCHAR q
ENCODING 113
SWIDTH 666 0
DWIDTH 7 0
BBX 7 14 0 -3
BITMAP
00
00
00
00
3e
42
42
42
42
42
3e
02
02
02
ENDCHAR
STARTCHAR r
ENCODING 114
SWIDTH 666 0
DWIDTH 7 0
BBX 7 14 0 -3
BITMAP
00
00
00
00
5c
60
40
40
40
40
40
00
00
00
ENDCHAR
STARTCHAR s
ENCODING 115
SWIDTH 666 0
DWIDTH 7 0
BBX 7 14 0 -3
BITMAP
00
00
00
00
3e
40
40
3c
02
02
7c
00
00
00
ENDCHAR
STARTCHAR t
ENCODING 116
SWIDTH 666 0
DWIDTH 7 0
BBX 7 14 0 -3
BITMAP
00
10
10
10
7e
10
10
10
10
10
0e
00
00
00
ENDCHAR
STARTCHAR u
ENCODING 117
SWIDTH 666 0
DWIDTH 7 0
BBX 7 14 0 -3
BITMAP
00
00
00
00
42
42
42
42
42
46
3a
00
00
00
ENDCHAR
STARTCHAR v
ENCODING 118
SWIDTH 666 0
DWIDTH 7 0
BBX 7 14 0 -3
BITMAP
00
00
00
00
c6
44
44
28
28
10
10
00
00
00
ENDCHAR
STARTCHAR w
ENCODING 119
SWIDTH 666 0
DWIDTH 7 0
BBX 7 14 0 -3
BITMAP
00
00
00
00
44
44
54
54
54
54
28
00
00
00
ENDCHAR
STARTCHAR x
ENCODING 120
SWIDTH 666 0
DWIDTH 7 0
BBX 7 14 0 -3
BITMAP
00
00
00
00
44
44
28
10
28
44
44
00
00
00
ENDCHAR
STARTCHAR y
ENCODING 121
SWIDTH 666 0
DWIDTH 7 0
BBX 7 14 0 -3
BITMAP
00
00
00
00
42
42
42
42
42
42
3e
02
02
3c
ENDCHAR
STARTCHAR z
ENCODING 122
SWIDTH 666 0
DWIDTH 7 0
BBX 7 14 0 -3
BITMAP
00
00
00
00
7c
04
08
10
20
40
7c
00
00
00
ENDCHAR
STARTCHAR {
ENCODING 123
SWIDTH 666 0
DWIDTH 7 0
BBX 7 14 0 -3
BITMAP
00
08
10
10
10
10
20
10
10
10
10
08
00
00
ENDCHAR
STARTCHAR |
ENCODING 124
SWIDTH 666 0
DWIDTH 7 0
BBX 7 14 0 -3
BITMAP
00
10
10
10
10
10
10
10
10
10
10
10
00
00
ENDCHAR
STARTCHAR }
ENCODING 125
SWIDTH 666 0
DWIDTH 7 0
BBX 7 14 0 -3
BITMAP
00
20
10
10
10
10
08
10
10
10
10
20
00
00
ENDCHAR
STARTCHAR ~
ENCODING 126
SWIDTH 666 0
DWIDTH 7 0
BBX 7 14 0 -3
BITMAP
00
20
54
08
00
00
00
00
00
00
00
00
00
00
ENDCHAR
STARTCHAR C177
ENCODING 127
SWIDTH 666 0
DWIDTH 7 0
BBX 7 14 0 -3
BITMAP
00
00
10
10
10
28
28
28
44
44
7c
00
00
00
ENDCHAR
ENDFONT
